<?xml version="1.0" encoding="UTF-8"?>
<svg width="107" height="19" viewBox="0 0 107 19" xmlns="http://www.w3.org/2000/svg"><title>Ничоsee</title><path d="M10.52 1.2c-.14 0-.24.1-.24.2v3.9H3.92V1.4c0-.1-.1-.2-.24-.2H.94c-.14 0-.24.1-.24.2v16.4c0 .1.1.2.24.2h2.74c.14 0 .24-.1.24-.2v-3.9h6.36v3.9c0 .1.1.2.24.2h2.74c.14 0 .24-.1.24-.2V1.4c0-.1-.1-.2-.24-.2h-2.74zm-6.6 9.58V8.42h6.36v2.36H3.92zM17.5 17.8c0 .1.1.2.2.2h2.84c.05 0 .17-.05.2-.1l7.72-11.5v11.4c0 .1.1.2.24.2h2.8c.13 0 .23-.1.23-.2V1.4c0-.1-.1-.2-.24-.2h-2.82c-.05 0-.17.02-.2.07-2.44 3.58-5.3 7.75-7.75 11.3V1.4c0-.1-.1-.2-.23-.2h-2.8c-.1 0-.2.1-.2.2v16.4zM47 18c.15 0 .25-.1.25-.2V1.4c0-.1-.1-.2-.24-.2h-2.73c-.14 0-.24.1-.24.2V8.4c-.74.63-1.82 1-2.76 1-1.5 0-2.86-.92-3.07-2.63V1.4c0-.1-.1-.2-.22-.2h-2.76c-.14 0-.24.1-.24.2V6.8c0 3.4 2.52 5.66 5.9 5.66 1.2 0 2.24-.26 3.15-.77v6.1c0 .1.1.2.24.2H47zm10-4.46c3.48 0 6.34-2.84 6.34-6.3 0-3.42-2.86-6.28-6.34-6.28s-6.33 2.86-6.33 6.3 2.85 6.28 6.34 6.28zm0-9.48c1.76 0 3.15 1.4 3.15 3.2 0 1.8-1.4 3.18-3.14 3.18-1.72 0-3.14-1.4-3.14-3.2 0-1.77 1.42-3.18 3.15-3.18zm5.6 11.04c0-.1-.1-.2-.24-.2H51.53c-.14 0-.24.1-.24.2v2.7c0 .1.1.2.23.2h10.83c.14 0 .24-.1.24-.2v-2.7zm9.06 3.14c2.76 0 5.35-1.8 5.35-5.04 0-2.02-.97-3.72-2.8-4.56-1.22-.58-2.42-.58-2.54-.58-1.1 0-2.16-.64-2.16-1.9 0-1.38.98-2.08 2.16-2.08 1.13 0 2.06.58 2.1 1.8 0 .07.13.17.25.17h2.72c.15 0 .24-.1.24-.17-.04-2.93-2.35-4.92-5.3-4.92-2.76 0-5.38 1.97-5.38 5.2 0 2.02 1 3.54 2.8 4.38 1.26.57 2.44.57 2.58.57.98.06 2.16.83 2.16 2.1 0 1.15-1 1.92-2.16 1.92-1.1 0-2.1-.62-2.16-1.85 0-.1-.12-.2-.24-.2h-2.74c-.14 0-.24.1-.24.2.05 3.17 2.4 4.9 5.38 4.97zm19.6-14c.14 0 .24-.1.24-.18V1.4c0-.1-.1-.2-.24-.2H80.53c-.14 0-.24.1-.24.2v16.4c0 .1.1.2.23.2h10.94c.15 0 .25-.1.25-.2v-2.73c0-.1-.1-.2-.25-.2h-7.96V11.1h6.6c.13 0 .22-.1.22-.2V8.23c0-.1-.1-.2-.2-.2h-6.6V4.26h7.74zm14.5 0c.13 0 .23-.1.23-.18V1.4c0-.1-.1-.2-.25-.2H95.02c-.15 0-.24.1-.24.2v16.4c0 .1.1.2.24.2h10.94c.15 0 .24-.1.24-.2v-2.73c0-.1-.1-.2-.24-.2H98V11.1h6.6c.1 0 .2-.1.2-.2V8.23c0-.1-.1-.2-.2-.2H98V4.26h7.75z" fill="#FFF" fill-rule="evenodd"/></svg>